{
    "asset" : {
        "generator" : "Khronos glTF Blender I/O v1.6.16",
        "version" : "2.0"
    },
    "scene" : 0,
    "scenes" : [
        {
            "name" : "Scene",
            "nodes" : [
                0,
                1,
                2,
                3
            ]
        }
    ],
    "nodes" : [
        {
            "mesh" : 0,
            "name" : "Sphere",
            "scale" : [
                0.39939406514167786,
                0.39939406514167786,
                0.39939406514167786
            ],
            "translation" : [
                0,
                0.3808271288871765,
                -1.5663301944732666
            ]
        },
        {
            "mesh" : 1,
            "name" : "Text",
            "rotation" : [
                0.5000000596046448,
                0.4999999701976776,
                -0.4999999701976776,
                0.5
            ],
            "scale" : [
                2.3566386699676514,
                2.3566386699676514,
                2.3566386699676514
            ],
            "translation" : [
                0.13686858117580414,
                0.000730494037270546,
                -0.11368782073259354
            ]
        },
        {
            "mesh" : 2,
            "name" : "Circle.002",
            "rotation" : [
                -0.21506623923778534,
                -0.17510364949703217,
                0.039229147136211395,
                -0.9599720239639282
            ],
            "scale" : [
                0.5337210893630981,
                0.5337210893630981,
                0.5337210893630981
            ],
            "translation" : [
                0.010005161166191101,
                0.3980766236782074,
                -1.5765628814697266
            ]
        },
        {
            "mesh" : 3,
            "name" : "Text.001",
            "rotation" : [
                0.5,
                0.5,
                -0.5,
                0.4999999701976776
            ],
            "scale" : [
                0.5050330758094788,
                0.5050330758094788,
                0.5050330758094788
            ],
            "translation" : [
                -0.33872175216674805,
                0.016795771196484566,
                -2.2378761768341064
            ]
        }
    ],
    "materials" : [
        {
            "doubleSided" : true,
            "name" : "Material.003",
            "pbrMetallicRoughness" : {
                "baseColorFactor" : [
                    0,
                    0,
                    0,
                    1
                ],
                "metallicFactor" : 0.7867646813392639,
                "roughnessFactor" : 0.5
            }
        },
        {
            "doubleSided" : true,
            "name" : "Material.002",
            "pbrMetallicRoughness" : {
                "baseColorFactor" : [
                    0,
                    0,
                    0,
                    1
                ],
                "metallicFactor" : 0.904411792755127,
                "roughnessFactor" : 0.5
            }
        },
        {
            "doubleSided" : true,
            "name" : "Material.006",
            "pbrMetallicRoughness" : {}
        },
        {
            "doubleSided" : true,
            "name" : "Material.008",
            "pbrMetallicRoughness" : {
                "baseColorFactor" : [
                    0,
                    0,
                    0,
                    1
                ],
                "metallicFactor" : 0.875,
                "roughnessFactor" : 0.5
            }
        }
    ],
    "meshes" : [
        {
            "name" : "Sphere",
            "primitives" : [
                {
                    "attributes" : {
                        "POSITION" : 0,
                        "NORMAL" : 1,
                        "TEXCOORD_0" : 2
                    },
                    "indices" : 3,
                    "material" : 0
                }
            ]
        },
        {
            "name" : "Text",
            "primitives" : [
                {
                    "attributes" : {
                        "POSITION" : 4,
                        "NORMAL" : 5,
                        "TEXCOORD_0" : 6
                    },
                    "indices" : 7,
                    "material" : 1
                }
            ]
        },
        {
            "name" : "Circle.004",
            "primitives" : [
                {
                    "attributes" : {
                        "POSITION" : 8,
                        "NORMAL" : 9,
                        "TEXCOORD_0" : 10
                    },
                    "indices" : 11,
                    "material" : 2
                }
            ]
        },
        {
            "name" : "Text.001",
            "primitives" : [
                {
                    "attributes" : {
                        "POSITION" : 12,
                        "NORMAL" : 13,
                        "TEXCOORD_0" : 14
                    },
                    "indices" : 15,
                    "material" : 3
                }
            ]
        }
    ],
    "accessors" : [
        {
            "bufferView" : 0,
            "componentType" : 5126,
            "count" : 41032,
            "max" : [
                0.9699995517730713,
                0.9700000286102295,
                0.9699990749359131
            ],
            "min" : [
                -0.9699987173080444,
                -0.9700000286102295,
                -0.9700000286102295
            ],
            "type" : "VEC3"
        },
        {
            "bufferView" : 1,
            "componentType" : 5126,
            "count" : 41032,
            "type" : "VEC3"
        },
        {
            "bufferView" : 2,
            "componentType" : 5126,
            "count" : 41032,
            "type" : "VEC2"
        },
        {
            "bufferView" : 3,
            "componentType" : 5123,
            "count" : 61272,
            "type" : "SCALAR"
        },
        {
            "bufferView" : 4,
            "componentType" : 5126,
            "count" : 425,
            "max" : [
                0.5,
                0,
                4.660259733668681e-09
            ],
            "min" : [
                0.06999999284744263,
                -0.10661432147026062,
                -0.6820000410079956
            ],
            "type" : "VEC3"
        },
        {
            "bufferView" : 5,
            "componentType" : 5126,
            "count" : 425,
            "type" : "VEC3"
        },
        {
            "bufferView" : 6,
            "componentType" : 5126,
            "count" : 425,
            "type" : "VEC2"
        },
        {
            "bufferView" : 7,
            "componentType" : 5123,
            "count" : 672,
            "type" : "SCALAR"
        },
        {
            "bufferView" : 8,
            "componentType" : 5126,
            "count" : 480,
            "max" : [
                1.728859782218933,
                8.516894212107218e-08,
                1.7288596630096436
            ],
            "min" : [
                -1.728859543800354,
                -7.062412521463557e-08,
                -1.7288596630096436
            ],
            "type" : "VEC3"
        },
        {
            "bufferView" : 9,
            "componentType" : 5126,
            "count" : 480,
            "type" : "VEC3"
        },
        {
            "bufferView" : 10,
            "componentType" : 5126,
            "count" : 480,
            "type" : "VEC2"
        },
        {
            "bufferView" : 11,
            "componentType" : 5123,
            "count" : 960,
            "type" : "SCALAR"
        },
        {
            "bufferView" : 12,
            "componentType" : 5126,
            "count" : 3176,
            "max" : [
                2.4850001335144043,
                0,
                0.009000000543892384
            ],
            "min" : [
                0.0690000057220459,
                -0.16575747728347778,
                -0.6914074420928955
            ],
            "type" : "VEC3"
        },
        {
            "bufferView" : 13,
            "componentType" : 5126,
            "count" : 3176,
            "type" : "VEC3"
        },
        {
            "bufferView" : 14,
            "componentType" : 5126,
            "count" : 3176,
            "type" : "VEC2"
        },
        {
            "bufferView" : 15,
            "componentType" : 5123,
            "count" : 4980,
            "type" : "SCALAR"
        }
    ],
    "bufferViews" : [
        {
            "buffer" : 0,
            "byteLength" : 492384,
            "byteOffset" : 0
        },
        {
            "buffer" : 0,
            "byteLength" : 492384,
            "byteOffset" : 492384
        },
        {
            "buffer" : 0,
            "byteLength" : 328256,
            "byteOffset" : 984768
        },
        {
            "buffer" : 0,
            "byteLength" : 122544,
            "byteOffset" : 1313024
        },
        {
            "buffer" : 0,
            "byteLength" : 5100,
            "byteOffset" : 1435568
        },
        {
            "buffer" : 0,
            "byteLength" : 5100,
            "byteOffset" : 1440668
        },
        {
            "buffer" : 0,
            "byteLength" : 3400,
            "byteOffset" : 1445768
        },
        {
            "buffer" : 0,
            "byteLength" : 1344,
            "byteOffset" : 1449168
        },
        {
            "buffer" : 0,
            "byteLength" : 5760,
            "byteOffset" : 1450512
        },
        {
            "buffer" : 0,
            "byteLength" : 5760,
            "byteOffset" : 1456272
        },
        {
            "buffer" : 0,
            "byteLength" : 3840,
            "byteOffset" : 1462032
        },
        {
            "buffer" : 0,
            "byteLength" : 1920,
            "byteOffset" : 1465872
        },
        {
            "buffer" : 0,
            "byteLength" : 38112,
            "byteOffset" : 1467792
        },
        {
            "buffer" : 0,
            "byteLength" : 38112,
            "byteOffset" : 1505904
        },
        {
            "buffer" : 0,
            "byteLength" : 25408,
            "byteOffset" : 1544016
        },
        {
            "buffer" : 0,
            "byteLength" : 9960,
            "byteOffset" : 1569424
        }
    ],
    "buffers" : [
        {
            "byteLength" : 1579384,
            "uri" : "data:application/octet-stream;base64,"
        }
    ]
}
